HIERARCHY
ROOT Hips
{
	OFFSET 0.000000 89.005402 0.000000
	CHANNELS 6 Xposition Yposition Zposition Xrotation Yrotation Zrotation
	JOINT Spine
	{
		OFFSET 0.116900 10.681000 0.373400
		CHANNELS 3 Xrotation Yrotation Zrotation
		JOINT Spine1
		{
			OFFSET 0.000000 13.840401 0.053500
			CHANNELS 3 Xrotation Yrotation Zrotation
			JOINT Spine2
			{
				OFFSET 0.000000 14.712700 -0.366200
				CHANNELS 3 Xrotation Yrotation Zrotation
				JOINT Neck
				{
					OFFSET 0.000000 35.415497 -3.314200
					CHANNELS 3 Xrotation Yrotation Zrotation
					JOINT Head
					{
						OFFSET 0.000000 16.899200 1.218300
						CHANNELS 3 Xrotation Yrotation Zrotation
						JOINT HeadTop_End
						{
							OFFSET 0.000000 22.206207 2.192500
							CHANNELS 3 Xrotation Yrotation Zrotation
							End Site
							{
								OFFSET 0.000000 22.314178 0.000000
							}
						}
					}
				}
				JOINT LeftShoulder
				{
					OFFSET 12.896400 26.716293 -4.548400
					CHANNELS 3 Xrotation Yrotation Zrotation
					JOINT LeftArm
					{
						OFFSET 19.027000 -4.857010 -1.718400
						CHANNELS 3 Xrotation Yrotation Zrotation
						JOINT LeftForeArm
						{
							OFFSET 24.179897 0.000000 0.000000
							CHANNELS 3 Xrotation Yrotation Zrotation
							JOINT LeftHand
							{
								OFFSET 27.156403 0.000000 0.000000
								CHANNELS 3 Xrotation Yrotation Zrotation
								JOINT LeftHandIndex1
								{
									OFFSET 16.441200 0.000000 0.000000
									CHANNELS 3 Xrotation Yrotation Zrotation
									JOINT LeftHandIndex2
									{
										OFFSET 4.821899 0.000000 0.000000
										CHANNELS 3 Xrotation Yrotation Zrotation
										JOINT LeftHandIndex3
										{
											OFFSET 6.386497 0.000000 0.000000
											CHANNELS 3 Xrotation Yrotation Zrotation
											JOINT LeftHandIndex4
											{
												OFFSET 5.188988 0.000000 0.000000
												CHANNELS 3 Xrotation Yrotation Zrotation
												End Site
												{
													OFFSET -0.178703 5.185913 0.000177
												}
											}
										}
									}
								}
								JOINT LeftHandThumb1
								{
									OFFSET 6.534897 -5.032593 5.900300
									CHANNELS 3 Xrotation Yrotation Zrotation
									JOINT LeftHandThumb2
									{
										OFFSET 3.818176 -2.204422 2.204423
										CHANNELS 3 Xrotation Yrotation Zrotation
										JOINT LeftHandThumb3
										{
											OFFSET 3.252098 -1.877594 1.877601
											CHANNELS 3 Xrotation Yrotation Zrotation
											JOINT LeftHandThumb4
											{
												OFFSET 5.251778 -3.032120 3.032117
												CHANNELS 3 Xrotation Yrotation Zrotation
												End Site
												{
													OFFSET 0.000023 6.780014 0.000000
												}
											}
										}
									}
								}
							}
						}
					}
				}
				JOINT RightShoulder
				{
					OFFSET -12.896300 26.716293 -4.548400
					CHANNELS 3 Xrotation Yrotation Zrotation
					JOINT RightArm
					{
						OFFSET -19.027000 -4.857010 -1.718400
						CHANNELS 3 Xrotation Yrotation Zrotation
						JOINT RightForeArm
						{
							OFFSET -24.179897 0.000000 0.000000
							CHANNELS 3 Xrotation Yrotation Zrotation
							JOINT RightHand
							{
								OFFSET -27.156403 0.000000 0.000000
								CHANNELS 3 Xrotation Yrotation Zrotation
								JOINT RightHandThumb1
								{
									OFFSET -6.591202 -4.852203 5.988100
									CHANNELS 3 Xrotation Yrotation Zrotation
									JOINT RightHandThumb2
									{
										OFFSET -3.818176 -2.204422 2.204423
										CHANNELS 3 Xrotation Yrotation Zrotation
										JOINT RightHandThumb3
										{
											OFFSET -3.252098 -1.877594 1.877601
											CHANNELS 3 Xrotation Yrotation Zrotation
											JOINT RightHandThumb4
											{
												OFFSET -5.251778 -3.032120 3.032117
												CHANNELS 3 Xrotation Yrotation Zrotation
												End Site
												{
													OFFSET -0.000023 6.780014 0.000000
												}
											}
										}
									}
								}
								JOINT RightHandIndex1
								{
									OFFSET -16.029404 0.000000 0.000000
									CHANNELS 3 Xrotation Yrotation Zrotation
									JOINT RightHandIndex2
									{
										OFFSET -5.213303 0.000000 0.000000
										CHANNELS 3 Xrotation Yrotation Zrotation
										JOINT RightHandIndex3
										{
											OFFSET -6.386528 0.000000 0.000000
											CHANNELS 3 Xrotation Yrotation Zrotation
											JOINT RightHandIndex4
											{
												OFFSET -5.189026 0.000000 0.000000
												CHANNELS 3 Xrotation Yrotation Zrotation
												End Site
												{
													OFFSET 0.236702 5.183624 0.001972
												}
											}
										}
									}
								}
							}
						}
					}
				}
			}
		}
	}
	JOINT LeftUpLeg
	{
		OFFSET 14.073000 -7.904099 -1.463000
		CHANNELS 3 Xrotation Yrotation Zrotation
		JOINT LeftLeg
		{
			OFFSET -0.109806 -34.073280 4.093200
			CHANNELS 3 Xrotation Yrotation Zrotation
			JOINT LeftFoot
			{
				OFFSET 0.109806 -29.899420 -6.319000
				CHANNELS 3 Xrotation Yrotation Zrotation
				JOINT LeftToeBase
				{
					OFFSET 1.551100 -14.988700 20.535801
					CHANNELS 3 Xrotation Yrotation Zrotation
					JOINT LeftToe_End
					{
						OFFSET 0.221200 0.570800 13.248301
						CHANNELS 3 Xrotation Yrotation Zrotation
						End Site
						{
							OFFSET 0.000000 13.262435 0.000000
						}
					}
				}
			}
		}
	}
	JOINT RightUpLeg
	{
		OFFSET -13.839300 -7.904099 -1.463000
		CHANNELS 3 Xrotation Yrotation Zrotation
		JOINT RightLeg
		{
			OFFSET 0.109694 -34.073219 4.093300
			CHANNELS 3 Xrotation Yrotation Zrotation
			JOINT RightFoot
			{
				OFFSET -0.109694 -29.899384 -6.319200
				CHANNELS 3 Xrotation Yrotation Zrotation
				JOINT RightToeBase
				{
					OFFSET -1.551100 -14.988700 20.535801
					CHANNELS 3 Xrotation Yrotation Zrotation
					JOINT RightToe_End
					{
						OFFSET -0.221200 0.570900 13.248299
						CHANNELS 3 Xrotation Yrotation Zrotation
						End Site
						{
							OFFSET 0.000000 13.262440 0.000000
						}
					}
				}
			}
		}
	}
}
MOTION
Frames: 4
Frame Time: 0.033333
-0.306475 84.269470 0.776775 11.074085 -8.890606 1.030909 0.476474 1.695825 -0.130753 0.590617 3.231150 -0.200959 0.591959 3.231691 -0.184244 -7.371662 -0.128760 -0.326410 -17.364520 -0.891421 -0.798851 -0.000001 0.000000 0.000000 0.242894 6.420810 -8.430453 0.022941 -7.027565 -72.225009 0.000005 -28.297687 0.000007 14.437568 -7.233934 -3.737523 0.484508 2.541682 -21.581863 0.219494 1.728014 -14.476868 0.055077 0.870952 -7.236763 -0.000000 0.000001 0.000000 -1.097058 21.330469 7.697447 3.946761 7.971390 0.752848 -0.575600 1.586256 2.542383 -0.000000 0.000001 -0.000000 0.465238 -6.401417 11.058024 -5.594677 -5.456614 71.492416 0.000009 33.451268 -0.000030 23.643096 1.243541 -3.949664 13.722753 -12.125831 -11.655335 4.645034 -8.656779 -0.231309 -1.269841 0.126074 -2.098670 -0.000003 -0.000000 0.000000 0.168348 -1.523781 12.608050 0.273112 -1.933303 16.080217 0.068592 -0.976251 8.037803 0.000000 -0.000002 -0.000001 -18.303908 8.469334 3.372768 26.177035 2.113555 0.144458 -18.907856 0.497427 -2.406697 -0.000056 0.000001 -0.000002 0.000000 0.000000 0.000000 -22.025600 -5.349339 -4.471719 25.590122 10.247901 0.599073 -14.975612 2.764975 0.862204 -0.000225 0.000000 0.000000 0.000000 0.000000 -0.000000 
-0.299781 84.214615 0.766939 11.229045 -9.001817 1.152392 0.477755 1.700345 -0.113643 0.584312 3.234013 -0.198522 0.585304 3.234706 -0.181354 -7.306617 -0.099883 -0.360319 -16.754599 -0.798075 -0.793507 0.000000 -0.000000 -0.000000 0.244742 6.476888 -8.531393 0.353748 -8.381171 -71.910438 0.000002 -29.400044 0.000010 14.194273 -6.543269 -2.865891 0.484517 2.541687 -21.581837 0.219499 1.728016 -14.476852 0.055071 0.870951 -7.236772 -0.000000 -0.000001 -0.000003 -1.097058 21.330462 7.697414 3.946761 7.971390 0.752845 -0.575602 1.586256 2.542385 -0.000001 -0.000001 -0.000003 0.459367 -6.361263 10.937080 -5.594530 -5.138729 71.251666 -0.000007 33.247305 0.000015 24.366592 0.752621 -4.860976 13.722452 -12.125712 -11.655784 4.645037 -8.656782 -0.231310 -1.269837 0.126075 -2.098674 0.000001 -0.000000 0.000003 0.168334 -1.523738 12.607635 0.273112 -1.933291 16.080251 0.068589 -0.976243 8.037832 -0.000002 -0.000000 -0.000001 -18.482258 8.391427 3.260416 26.308446 2.383766 0.155376 -18.986644 0.528494 -2.474943 -0.000024 -0.000001 0.000001 0.000000 0.000000 -0.000000 -22.401936 -5.311983 -4.576351 25.906991 10.365379 0.608180 -15.074779 2.846186 0.818752 -0.001107 0.000001 -0.000000 -0.000000 0.000000 0.000000 
-0.304027 84.137558 0.729181 11.719607 -9.146282 1.346248 0.466155 1.682445 -0.054637 0.539155 3.190166 -0.104245 0.539554 3.190527 -0.086431 -7.272514 -0.005967 -0.490837 -16.664118 -0.492505 -0.853697 0.000001 0.000000 0.000000 0.247097 6.688951 -8.859872 0.710367 -9.276306 -71.248627 -0.000005 -31.116627 0.000002 14.499604 -5.601473 -1.973623 0.484517 2.541679 -21.581854 0.219488 1.728015 -14.476876 0.055073 0.870951 -7.236774 -0.000003 -0.000001 -0.000001 -1.097057 21.330454 7.697453 3.946760 7.971390 0.752844 -0.575598 1.586255 2.542384 0.000002 0.000000 0.000002 0.438128 -6.236652 10.528099 -5.886309 -4.624563 70.714847 0.000002 33.357804 -0.000016 24.621126 0.318304 -5.800540 13.722315 -12.125688 -11.656154 4.645036 -8.656779 -0.231307 -1.269840 0.126073 -2.098675 -0.000001 0.000001 -0.000004 0.168330 -1.523695 12.607286 0.273111 -1.933295 16.080258 0.068584 -0.976244 8.037821 0.000000 -0.000001 -0.000001 -19.057401 8.259323 3.145075 26.481919 2.785889 0.165867 -19.031818 0.575730 -2.589366 -0.000005 0.000001 0.000001 0.000000 0.000000 -0.000000 -23.199673 -5.105624 -4.650698 26.278116 10.368955 0.609984 -15.132887 2.922578 0.803195 -0.005305 -0.000001 0.000000 -0.000000 -0.000000 -0.000000 
-0.340323 84.072006 0.648924 12.331740 -9.348147 1.553991 0.468172 1.656373 0.006422 0.513045 3.130644 0.024976 0.512978 3.130421 0.043623 -7.221492 0.119675 -0.638978 -17.087752 -0.044991 -0.908871 0.000000 0.000000 0.000000 0.250769 6.954726 -9.246701 1.010028 -9.556353 -70.154246 0.000003 -33.206433 -0.000002 15.165754 -4.571795 -1.064185 0.484505 2.541684 -21.581868 0.219496 1.728023 -14.476852 0.055072 0.870942 -7.236797 0.000002 -0.000000 -0.000000 -1.097065 21.330464 7.697446 3.946759 7.971389 0.752845 -0.575599 1.586256 2.542384 0.000001 0.000000 0.000000 0.412469 -6.076757 10.000249 -6.199064 -3.930218 69.534843 0.000002 34.046645 0.000006 23.980082 -0.219968 -6.395720 13.723097 -12.126104 -11.655367 4.645035 -8.656781 -0.231313 -1.269838 0.126072 -2.098677 0.000002 0.000002 0.000004 0.168337 -1.523775 12.607996 0.273115 -1.933299 16.080238 0.068593 -0.976245 8.037824 -0.000000 -0.000000 0.000000 -19.772805 8.121501 3.089273 26.614401 3.259867 0.176593 -19.009958 0.632157 -2.760853 -0.000022 0.000001 -0.000007 -0.000000 -0.000000 0.000000 -24.136552 -4.797039 -4.642602 26.564407 10.363432 0.611652 -15.075915 3.012153 0.770928 -0.004931 -0.000002 -0.000000 -0.000000 -0.000000 0.000000 
